<svg width="128" height="25" xmlns="http://www.w3.org/2000/svg"><g id="Page-1" stroke="none" stroke-width="1" fill="none" fill-rule="evenodd"><g id="logo-full-white" fill="#FFF"><g id="Page-1"><g id="While-Full"><path d="m22.006 7.018.018.002.017-.002a4.316 4.316 0 0 1 2.758 7.636c-.415.394-.934.681-1.569.828-.376.11-.777.17-1.189.17h-.035c-.412 0-.812-.06-1.19-.17a3.33 3.33 0 0 1-1.568-.828 4.317 4.317 0 0 1 2.758-7.636M3.723 24.385c2.318.292 4.378-1.397 4.597-3.77a4.492 4.492 0 0 0-.39-2.267c-3.25-7.13 12.78-7.293 10.072-.563l-.018.029c-1.281 2.047-.587 4.709 1.543 5.94.783.453 1.65.642 2.497.608a4.594 4.594 0 0 0 2.497-.608c2.129-1.231 2.823-3.893 1.542-5.94-.006-.012-.013-.02-.019-.029-2.707-6.73 13.324-6.567 10.073.563a4.488 4.488 0 0 0-.39 2.266c.22 2.374 2.278 4.063 4.598 3.771a4.3 4.3 0 0 0 2.613-1.352s1.08-.894 1.062-3.178c-.015-1.861-1.062-2.892-1.062-2.892a4.047 4.047 0 0 0-3.326-1.183c-2.976-.068-3.417-2.396-2.577-6.79a6.101 6.101 0 0 0 .414-2.449A6.276 6.276 0 0 0 34.323.875a6.355 6.355 0 0 0-.78-.375c-.07-.03-.144-.057-.216-.085-.082-.03-.162-.06-.245-.085a6.261 6.261 0 0 0-7.34 2.665c-1.5 1.643-2.177 2.642-3.718 2.642-1.465 0-2.22-.999-3.718-2.642A6.26 6.26 0 0 0 10.966.33c-.083.024-.165.056-.245.085-.073.028-.145.054-.218.085a6.285 6.285 0 0 0-.777.375 6.274 6.274 0 0 0-3.129 5.666c-.028.835.108 1.67.416 2.448.839 4.395.398 6.723-2.576 6.79-1.458-.156-2.545.444-3.645 1.545-1.1 1.1-1.01 4.044 0 5.33.733.934 1.727 1.58 2.93 1.731" id="Fill-17-Copy-4"/><path d="m64.728 19-.653-10.886-4.877 11.155L54.84 8.133 54.053 19H52.65l.941-12.653h1.94l1.746 4.282c.27.678.528 1.337.778 1.977.25.64.47 1.216.662 1.728a71.504 71.504 0 0 1 .653 1.805c.013-.038.083-.224.211-.557.128-.332.295-.758.5-1.276a93.49 93.49 0 0 1 .7-1.719c.263-.627.528-1.254.797-1.881l1.901-4.359h1.824L66.226 19h-1.498Zm5.107-4.82a1.05 1.05 0 0 0-.038.231v.25c0 1.062.246 1.878.739 2.448.493.57 1.194.854 2.102.854.256 0 .519-.025.788-.077.268-.05.524-.118.768-.201.243-.083.467-.18.672-.288a2.5 2.5 0 0 0 .499-.336l.115 1.344a5.739 5.739 0 0 1-1.325.605c-.499.16-1.158.24-1.977.24-.55 0-1.063-.103-1.536-.308a3.546 3.546 0 0 1-1.239-.892 4.304 4.304 0 0 1-.835-1.43c-.205-.564-.307-1.21-.307-1.94 0-.742.096-1.402.288-1.978.192-.576.46-1.059.806-1.45.346-.39.755-.684 1.229-.882a3.985 3.985 0 0 1 1.555-.298c1.293 0 2.199.342 2.717 1.027.518.685.778 1.712.778 3.082h-5.799Zm4.455-1.151c-.026-.384-.103-.688-.23-.912a1.39 1.39 0 0 0-.5-.519 1.777 1.777 0 0 0-.7-.23 6.739 6.739 0 0 0-.817-.048 2.88 2.88 0 0 0-.691.096c-.256.064-.41.122-.46.173a5.959 5.959 0 0 1-.154.144c-.077.07-.157.166-.24.288-.084.121-.17.265-.26.432-.09.166-.16.358-.21.576h4.262Zm11.001 2.86c0 .282-.003.57-.01.865l-.019.97c-.006.351-.016.777-.028 1.276h-1.46c.013-.486.023-.896.03-1.229.006-.333.009-.633.009-.902V13.93c0-.179-.007-.358-.02-.537a17.562 17.562 0 0 0-.086-.874 1.56 1.56 0 0 0-.201-.624.95.95 0 0 0-.432-.374c-.186-.084-.439-.125-.759-.125-.128 0-.259.01-.393.029l-.394.057c-.128.02-.237.045-.326.077l-.192.067a1.325 1.325 0 0 0-.25.202c-.115.109-.243.24-.384.393-.14.154-.285.314-.432.48-.147.167-.272.32-.374.461V19H78.09v-6.278c0-.5-.016-.941-.048-1.325a40.036 40.036 0 0 0-.105-1.095H79.3l.23 1.287a5.487 5.487 0 0 1 1.239-1.085c.454-.288 1.014-.432 1.68-.432.384 0 .739.035 1.065.106a2.2 2.2 0 0 1 .845.364c.237.173.429.407.576.701.147.295.24.666.278 1.114.039.435.061.867.068 1.296.006.429.01.86.01 1.296v.94ZM94.258 19a6.213 6.213 0 0 1-.096-.518l-.077-.519c-.435.461-.851.79-1.248.989-.397.198-.883.298-1.46.298a3.295 3.295 0 0 1-1.459-.327 3.53 3.53 0 0 1-1.17-.921 4.465 4.465 0 0 1-.788-1.43c-.192-.558-.288-1.182-.288-1.873 0-1.472.397-2.611 1.19-3.417.794-.807 1.87-1.21 3.226-1.21.397 0 .726.026.989.077.262.051.566.121.912.211V4.984h1.478V16.6c0 .435.013.835.039 1.2.025.365.064.765.115 1.2h-1.363Zm-.27-6.048c0-.358-.031-.643-.095-.854a.926.926 0 0 0-.327-.49c-.153-.115-.361-.189-.624-.22a8.411 8.411 0 0 0-1.45-.03 4.977 4.977 0 0 0-.873.144.574.574 0 0 0-.259.125 1.848 1.848 0 0 0-.269.307 3.78 3.78 0 0 0-.355.605c-.122.25-.227.544-.317.883-.09.34-.134.72-.134 1.143 0 .576.077 1.078.23 1.507.154.429.346.784.576 1.066.23.281.48.49.749.624s.525.201.768.201c.256 0 .5-.045.73-.134a3.336 3.336 0 0 0 1.21-.826c.166-.179.313-.365.44-.557v-3.494Zm5.55 1.229a1.05 1.05 0 0 0-.039.23v.25c0 1.062.247 1.878.74 2.448.492.57 1.193.854 2.102.854.256 0 .518-.025.787-.077.269-.05.525-.118.768-.201.243-.083.467-.18.672-.288a2.5 2.5 0 0 0 .5-.336l.114 1.344a5.739 5.739 0 0 1-1.324.605c-.5.16-1.159.24-1.978.24-.55 0-1.062-.103-1.536-.308a3.546 3.546 0 0 1-1.238-.892 4.304 4.304 0 0 1-.836-1.43c-.204-.564-.307-1.21-.307-1.94 0-.742.096-1.402.288-1.978.192-.576.461-1.059.807-1.45.345-.39.755-.684 1.228-.882a3.985 3.985 0 0 1 1.556-.298c1.292 0 2.198.342 2.716 1.027.519.685.778 1.712.778 3.082h-5.798Zm4.454-1.152c-.026-.384-.102-.688-.23-.912a1.39 1.39 0 0 0-.5-.519 1.777 1.777 0 0 0-.7-.23 6.739 6.739 0 0 0-.816-.048 2.88 2.88 0 0 0-.692.096c-.256.064-.41.122-.46.173a5.96 5.96 0 0 1-.154.144c-.077.07-.157.166-.24.288-.083.121-.17.265-.26.432-.089.166-.16.358-.21.576h4.262ZM107.563 19V4.984h1.479V19h-1.479Zm5.434-4.82a1.05 1.05 0 0 0-.039.231v.25c0 1.062.247 1.878.74 2.448.492.57 1.193.854 2.102.854.256 0 .518-.025.787-.077.269-.05.525-.118.768-.201.243-.083.467-.18.672-.288a2.5 2.5 0 0 0 .5-.336l.115 1.344a5.739 5.739 0 0 1-1.325.605c-.5.16-1.159.24-1.978.24-.55 0-1.062-.103-1.536-.308a3.546 3.546 0 0 1-1.238-.892 4.304 4.304 0 0 1-.835-1.43c-.205-.564-.308-1.21-.308-1.94 0-.742.096-1.402.288-1.978.192-.576.461-1.059.807-1.45.345-.39.755-.684 1.229-.882a3.985 3.985 0 0 1 1.555-.298c1.293 0 2.198.342 2.717 1.027.518.685.777 1.712.777 3.082h-5.798Zm4.454-1.151c-.025-.384-.102-.688-.23-.912a1.39 1.39 0 0 0-.5-.519 1.777 1.777 0 0 0-.7-.23 6.739 6.739 0 0 0-.816-.048 2.88 2.88 0 0 0-.691.096c-.256.064-.41.122-.461.173a5.961 5.961 0 0 1-.154.144c-.077.07-.157.166-.24.288-.083.121-.17.265-.259.432-.09.166-.16.358-.211.576h4.262Zm6.701 6.374a66 66 0 0 1-.816 2.199c-.288.736-.58 1.462-.874 2.179h-1.612c.384-.832.761-1.642 1.132-2.429.372-.787.685-1.54.941-2.256l-3.379-8.794h1.574l2.535 6.682 2.265-6.682h1.46l-3.226 9.101Z" id="Mendeley"/></g></g></g></g></svg>